<svg xmlns="http://www.w3.org/2000/svg" width="33" height="33" viewBox="0 0 33 33" fill="none">
  <rect width="33" height="33" rx="5" fill="#2D9DDC"/>
  <path d="M27 23.9238C27 24.2128 26.9499 24.4828 26.8497 24.7338C26.7494 24.9847 26.6068 25.2053 26.4218 25.3954C26.2368 25.5855 26.0209 25.7338 25.7742 25.8403C25.5275 25.9468 25.2577 26 24.9648 26H8.17401C7.88106 26 7.60352 25.9468 7.34141 25.8403C7.0793 25.7338 6.84802 25.5855 6.64758 25.3954C6.44714 25.2053 6.2891 24.9847 6.17346 24.7338C6.05782 24.4828 6 24.2128 6 23.9238V12.5391C6 11.9611 6.2043 11.4705 6.61289 11.0675C7.02148 10.6644 7.51872 10.4629 8.10463 10.4629H24.8954C25.4813 10.4629 25.9785 10.6644 26.3871 11.0675C26.7957 11.4705 27 11.9611 27 12.5391V15.6419H21.75C21.1641 15.6419 20.6669 15.8396 20.2583 16.2351C19.8497 16.6306 19.6454 17.1173 19.6454 17.6953C19.6608 18.0907 19.7456 18.4406 19.8998 18.7448C20.0231 19.0033 20.2274 19.2391 20.5127 19.452C20.7979 19.665 21.2104 19.7715 21.75 19.7715H27V23.9238ZM23.8546 9.41337H13.3546C14.1872 8.98749 14.9736 8.57682 15.7137 8.18135C16.3612 7.84673 17.0011 7.51211 17.6333 7.17749C18.2654 6.84286 18.7588 6.58429 19.1134 6.40177C19.6531 6.11278 20.1349 5.97969 20.5589 6.0025C20.9829 6.02532 21.3414 6.09757 21.6344 6.21925C21.9736 6.38656 22.2665 6.60711 22.5132 6.88089L23.8546 9.41337ZM20.7093 17.6953C20.7093 17.4063 20.8095 17.1629 21.0099 16.9652C21.2104 16.7675 21.457 16.6686 21.75 16.6686C22.043 16.6686 22.2896 16.7675 22.4901 16.9652C22.6905 17.1629 22.7907 17.4063 22.7907 17.6953C22.7907 17.9843 22.6905 18.2314 22.4901 18.4368C22.2896 18.6421 22.043 18.7448 21.75 18.7448C21.457 18.7448 21.2104 18.6421 21.0099 18.4368C20.8095 18.2314 20.7093 17.9843 20.7093 17.6953Z" fill="black"/>
</svg>